<?xml version="1.0" encoding="UTF-8" standalone="no"?>
<!-- Created with Inkscape (http://www.inkscape.org/) -->

<svg
   width="48"
   height="48"
   viewBox="0 0 12.7 12.7"
   version="1.1"
   id="svg208"
   inkscape:version="1.2 (dc2aedaf03, 2022-05-15)"
   sodipodi:docname="github-icon.svg"
   xmlns:inkscape="http://www.inkscape.org/namespaces/inkscape"
   xmlns:sodipodi="http://sodipodi.sourceforge.net/DTD/sodipodi-0.dtd"
   xmlns="http://www.w3.org/2000/svg"
   xmlns:svg="http://www.w3.org/2000/svg">
  <sodipodi:namedview
     id="namedview210"
     pagecolor="#ffffff"
     bordercolor="#000000"
     borderopacity="0.25"
     inkscape:showpageshadow="2"
     inkscape:pageopacity="0.0"
     inkscape:pagecheckerboard="0"
     inkscape:deskcolor="#d1d1d1"
     inkscape:document-units="mm"
     showgrid="false"
     inkscape:zoom="7.7682379"
     inkscape:cx="19.245034"
     inkscape:cy="22.656361"
     inkscape:window-width="910"
     inkscape:window-height="459"
     inkscape:window-x="134"
     inkscape:window-y="173"
     inkscape:window-maximized="0"
     inkscape:current-layer="layer1" />
  <defs
     id="defs205" />
  <g
     inkscape:label="Layer 1"
     inkscape:groupmode="layer"
     id="layer1">
    <circle
       style="fill:#4d4d4d;fill-opacity:1;stroke-width:0.0546128"
       id="circle31"
       r="6.3194623"
       cy="6.3194623"
       cx="6.3194623" />
    <path
       style="clip-rule:evenodd;fill:#ffffff;fill-rule:evenodd;stroke-width:0.0546128"
       inkscape:connector-curvature="0"
       id="path33"
       d="m 6.8967183,7.8144302 c -0.00308,0.4201366 -0.077987,1.2608994 0.02294,1.6055065 0.048607,0.1659682 0.1902702,0.2040875 0.2064357,0.4128724 -0.028838,0.014913 -0.04751,0.025014 -0.068809,0.04587 C 6.2199065,9.7075776 6.4024769,8.7221448 6.4150927,7.7456144 c -0.038233,0 -0.076456,0 -0.1146867,0 C 6.314984,8.5929858 6.5403749,9.8642613 5.61234,9.8557414 5.597872,9.8154894 5.6079,9.8334634 5.5894,9.8098714 5.632326,9.661434 5.755368,9.6032717 5.7958365,9.4428735 c 0.00761,-0.550387 0.015294,-1.100993 0.02294,-1.6513801 -0.00761,0 -0.015293,0 -0.02294,0 -0.1604525,0.2628514 -0.1102635,0.7816722 -0.1376244,1.16975 -0.00417,0.059034 0.029326,0.3051763 -0.02294,0.3899355 -0.079844,0.2407879 -0.4392501,0.3653598 -0.7568782,0.2981856 -0.00761,-0.02294 -0.015293,-0.04587 -0.02294,-0.06881 0.4331338,-0.2761765 0.3771015,-0.5676451 0.3669979,-1.2614998 -0.015294,0 -0.030586,0 -0.045871,0 -0.098085,0.062694 -0.3831633,0.045272 -0.4816301,0.02294 C 4.537341,8.3062264 4.4327579,8.3301444 4.3050186,8.2731852 3.9442466,8.1122417 3.9041605,7.7279313 3.685764,7.4245572 3.5774672,7.2741539 3.298559,7.2092193 3.2728916,6.9888023 c 0.015293,0 0.030586,0 0.04587,0 0.4118894,-0.2704978 0.8196285,0.56972 1.0321271,0.7110037 0.2446654,0.1626912 0.642137,0.057068 0.8945025,0 0.076401,-0.2337974 0.1351124,-0.408067 0.3211237,-0.5275047 -0.023428,-0.018464 -0.00625,-0.00815 -0.045879,-0.02294 C 5.4085154,7.0818025 5.2220675,7.1188301 5.0848807,7.0805523 4.7870221,6.9974826 4.4714152,6.8933397 4.2362526,6.7364921 3.4671953,6.2236236 3.1022731,4.4866637 3.9151293,3.7318611 3.8795785,3.3760041 3.6877218,2.4878362 4.1903781,2.4932975 c 0.1528612,0.045879 0.3058312,0.09175 0.4586925,0.1376244 0.2094943,0.090985 0.3811973,0.301681 0.6192546,0.3440611 0.1765627,-0.1224972 1.1595383,-0.2135912 1.5137563,-0.1376245 0.1072053,0.022994 0.5216067,0.122933 0.6192546,0.091749 0.058871,-0.01879 0.1317255,-0.1061123 0.183499,-0.1376235 0.2589184,-0.157503 0.6266266,-0.3334108 0.9862534,-0.2981861 0.037735,0.1501859 0.098412,0.3253289 0.1376243,0.5045679 0.046423,0.2121706 -0.1178549,0.4879105 -0.02294,0.6421915 0.034137,0.096283 0.1093349,0.1334188 0.1605619,0.2064365 0.097865,0.1395352 0.1969881,0.336305 0.2523102,0.504567 0.298405,0.9076095 -0.1060032,2.06622 -0.6192534,2.4082598 -0.2372944,0.1581586 -0.5626768,0.2400233 -0.8715666,0.3211233 -0.1307978,0.034355 -0.3912465,-0.00634 -0.4586934,0.091749 0.4526858,0.1626368 0.3669435,1.0107728 0.3669979,1.6284435 0,0.14527 0,0.29054 0,0.4357547 0.059088,0.1816968 0.3017905,0.1989549 0.344061,0.3899355 -0.02294,0.00761 -0.045879,0.015293 -0.068809,0.02294 C 7.5939556,9.7865069 7.1677036,9.5254033 7.1262521,9.3969546 7.0341752,9.2921523 7.0574427,9.0666566 7.0574427,8.8694501 c 0,-0.3787943 0.024253,-0.7984932 -0.091749,-1.0550643 -0.023103,5.44e-5 -0.046042,5.44e-5 -0.068972,5.44e-5 z" />
  </g>
</svg>
