<?xml version="1.0" encoding="UTF-8" standalone="no"?>
<!-- Created with Inkscape (http://www.inkscape.org/) -->

<svg
   width="48"
   height="48"
   viewBox="0 0 12.7 12.7"
   version="1.1"
   id="svg208"
   inkscape:version="1.2 (dc2aedaf03, 2022-05-15)"
   sodipodi:docname="twitter-icon.svg"
   xmlns:inkscape="http://www.inkscape.org/namespaces/inkscape"
   xmlns:sodipodi="http://sodipodi.sourceforge.net/DTD/sodipodi-0.dtd"
   xmlns="http://www.w3.org/2000/svg"
   xmlns:svg="http://www.w3.org/2000/svg">
  <sodipodi:namedview
     id="namedview210"
     pagecolor="#ffffff"
     bordercolor="#000000"
     borderopacity="0.25"
     inkscape:showpageshadow="2"
     inkscape:pageopacity="0.0"
     inkscape:pagecheckerboard="0"
     inkscape:deskcolor="#d1d1d1"
     inkscape:document-units="mm"
     showgrid="false"
     inkscape:zoom="7.7682379"
     inkscape:cx="-0.51491729"
     inkscape:cy="20.081774"
     inkscape:window-width="1366"
     inkscape:window-height="703"
     inkscape:window-x="0"
     inkscape:window-y="0"
     inkscape:window-maximized="1"
     inkscape:current-layer="layer1" />
  <defs
     id="defs205" />
  <g
     inkscape:label="Layer 1"
     inkscape:groupmode="layer"
     id="layer1">
    <circle
       style="fill:#4d4d4d;fill-opacity:1;stroke-width:0.0546527"
       id="circle72"
       r="6.3240952"
       cy="6.3528218"
       cx="6.3469567" />
    <path
       style="clip-rule:evenodd;fill:#ffffff;fill-rule:evenodd;stroke-width:0.0546527"
       inkscape:connector-curvature="0"
       id="path74"
       d="m 6.5789602,5.3319632 c 0.00888,-0.16111 -0.00624,-0.3883078 0.055152,-0.5678433 C 6.8332674,4.1822854 7.2219039,3.8199381 7.769525,3.6946192 8.0572179,3.6287542 8.5434085,3.6350462 8.8399004,3.803317 c 0.227519,0.1291412 0.4096223,0.2963275 0.5606825,0.4838401 0.2277382,0.029078 0.5952247,-0.068208 0.7756881,-0.1351495 0.08175,-0.030174 0.163566,-0.060385 0.245336,-0.090559 -0.0013,0.00945 -0.0026,0.019064 -0.004,0.028587 -0.195658,0.3466066 -0.4346,0.5626493 -0.7684191,0.7260078 0.2312355,-0.00737 0.4636741,-0.010203 0.6710821,-0.061916 0.0704,-0.017571 0.146524,-0.050995 0.226153,-0.05672 -3.3e-4,0.00246 -6.61e-4,0.00472 -9.92e-4,0.00718 C 10.379158,4.9346751 9.9428625,5.2991536 9.6736423,5.3874722 9.6259347,6.0551671 9.3802207,6.6014769 9.1611171,7.0730756 8.7425863,7.9739181 7.8679216,8.7363782 7.0240826,9.0846268 6.6790593,9.2269939 6.3057269,9.3034564 5.912773,9.3854908 5.0385467,9.5679134 3.6205783,9.1967765 3.0303832,8.7834888 2.8938544,8.6879035 2.4806309,8.4862865 2.4333012,8.3529886 c 0.035748,0.00491 0.071533,0.00964 0.1072807,0.014548 0.041964,0.049786 0.550954,0.092468 0.6435898,0.087272 0.637744,-0.035748 1.133172,-0.1600142 1.5870631,-0.4256898 3.288e-4,-0.00246 6.575e-4,-0.00472 9.844e-4,-0.00718 C 4.1638234,7.990235 3.4899539,7.2658162 3.4936156,6.7635033 c 0.019083,0.00265 0.038147,0.0051 0.05723,0.00775 0.1554418,0.076238 0.4760256,0.1054857 0.6260467,0.055757 C 4.0602025,6.8066763 3.9691027,6.7367681 3.8901291,6.6861697 3.4071089,6.3768884 3.0613204,5.8917369 3.1677301,5.1390034 3.3009713,5.1943065 3.6202552,5.455115 3.8228529,5.4098617 3.8156731,5.4088792 3.8084934,5.4079723 3.8013703,5.4070276 3.71971,5.3110078 3.6380686,5.2149785 3.5564158,5.118953 3.3729541,4.7871556 3.1933581,4.3005814 3.3906012,3.7637829 3.4542176,3.5905807 3.5682813,3.4625902 3.6262106,3.315082 c 0.00945,0.0013 0.019064,0.00265 0.028587,0.00397 0.4287506,0.8312158 1.639583,1.8311975 2.9240891,2.0130816 z" />
  </g>
</svg>
